<?xml version="1.0" ?><!DOCTYPE svg  PUBLIC '-//W3C//DTD SVG 1.1//EN'  'http://www.w3.org/Graphics/SVG/1.1/DTD/svg11.dtd'><svg enable-background="new 0 0 512 512" height="512px" version="1.1" viewBox="0 0 512 512" width="512px" xml:space="preserve" xmlns="http://www.w3.org/2000/svg" xmlns:xlink="http://www.w3.org/1999/xlink"><g id="Layer_2"><g id="Layer_2_1_"><circle cx="400.568" cy="173.115" fill="#E8F3F9" r="76.428"/><circle cx="380.57" cy="153.115" fill="none" r="76.429" stroke="#F28649" stroke-linecap="round" stroke-miterlimit="10" stroke-width="10"/><line fill="none" stroke="#F28649" stroke-linecap="round" stroke-miterlimit="10" stroke-width="10" x1="380.57" x2="380.57" y1="61.088" y2="35.238"/><line fill="none" stroke="#F28649" stroke-linecap="round" stroke-miterlimit="10" stroke-width="10" x1="380.57" x2="380.57" y1="270.99" y2="245.14"/><line fill="none" stroke="#F28649" stroke-linecap="round" stroke-miterlimit="10" stroke-width="10" x1="472.596" x2="498.445" y1="153.114" y2="153.114"/><line fill="none" stroke="#F28649" stroke-linecap="round" stroke-miterlimit="10" stroke-width="10" x1="262.693" x2="288.545" y1="153.114" y2="153.114"/><line fill="none" stroke="#F28649" stroke-linecap="round" stroke-miterlimit="10" stroke-width="10" x1="445.643" x2="463.92" y1="88.042" y2="69.763"/><line fill="none" stroke="#F28649" stroke-linecap="round" stroke-miterlimit="10" stroke-width="10" x1="297.219" x2="315.496" y1="236.464" y2="218.187"/><line fill="none" stroke="#F28649" stroke-linecap="round" stroke-miterlimit="10" stroke-width="10" x1="445.643" x2="463.92" y1="218.187" y2="236.464"/><line fill="none" stroke="#F28649" stroke-linecap="round" stroke-miterlimit="10" stroke-width="10" x1="297.219" x2="315.496" y1="69.763" y2="88.042"/></g></g><g id="Layer_1"><g id="Layer_3_1_"><path d="M361.37,218.782c-2.506,0-4.982,0.131-7.422,0.385c-0.646-58.746-48.461-106.172-107.359-106.172    c-45.357,0-84.145,28.123-99.88,67.88c-7.067-1.749-14.458-2.684-22.067-2.684c-50.574,0-91.572,41-91.572,91.574    c0,50.305,40.564,91.131,90.767,91.563v0.008h237.535c39.363,0,71.277-31.912,71.277-71.277    C432.647,250.695,400.735,218.782,361.37,218.782z" fill="#E8F3F9"/><path d="M341.854,199.265    c-2.506,0-4.982,0.133-7.422,0.386c-0.646-58.746-48.463-106.172-107.36-106.172c-45.356,0-84.145,28.123-99.879,67.881    c-7.067-1.749-14.458-2.683-22.067-2.683c-50.574,0-91.572,40.999-91.572,91.573c0,50.301,40.563,91.129,90.767,91.561v0.01    h237.536c39.363,0,71.275-31.912,71.275-71.279C413.132,231.179,381.218,199.265,341.854,199.265z" fill="none" stroke="#65BAE0" stroke-linejoin="round" stroke-miterlimit="10" stroke-width="10"/></g><polygon fill="#65BAE0" points="   313.231,269.527 256.694,359.846 293.839,350.514 260.878,429.895 329.794,328.965 295.687,332.918  " stroke="#65BAE0" stroke-linecap="round" stroke-linejoin="round" stroke-miterlimit="10" stroke-width="10"/><path d="   M180.553,395.85c2.273-6.854,21.363-23.375,21.363-23.375s5.435,24.654,3.162,31.508c-2.273,6.855-9.606,10.59-16.379,8.344   C181.927,410.08,178.279,402.703,180.553,395.85z" fill="none" stroke="#65BAE0" stroke-linecap="round" stroke-linejoin="round" stroke-miterlimit="10" stroke-width="10"/><path d="   M82.582,387.285c2.273-6.854,21.363-23.375,21.363-23.375s5.435,24.654,3.162,31.51c-2.272,6.854-9.605,10.588-16.378,8.342   C83.956,401.516,80.309,394.139,82.582,387.285z" fill="none" stroke="#65BAE0" stroke-linecap="round" stroke-linejoin="round" stroke-miterlimit="10" stroke-width="10"/><path d="   M124.898,442.787c2.273-6.854,21.363-23.375,21.363-23.375s5.435,24.654,3.162,31.508c-2.272,6.855-9.605,10.59-16.378,8.344   C126.271,457.018,122.625,449.641,124.898,442.787z" fill="none" stroke="#65BAE0" stroke-linecap="round" stroke-linejoin="round" stroke-miterlimit="10" stroke-width="10"/></g></svg>